# xmcd
#
# Track frame offsets:
# 150
# 900
# 1650
# 2400
# 3150
# 3900
# 4650
# 5400
# 6150
# 6900
# 212145
#
# Disc length: 4440 seconds
#
#
# Revision: 0
# Processed by: cddbd v1.4PL0 Copyright (c) Steve Scherf et al.
# Submitted via: FreeRIP 2.52 
#
DISCID=5511560b
DTITLE=顺子 - 
DYEAR=2003
DGENRE=A Cappella
TTITLE0=我的朋友Betty Su
TTITLE1=问自己
TTITLE2=I Will Be Fine
TTITLE3=If You Want My Love
TTITLE4=不再想念
TTITLE5=Don't Know Why
TTITLE6=Without Love
TTITLE7=遇见旧爱
TTITLE8=就现在
TTITLE9=D Doo Bang
TTITLE10=l
EXTD=
EXTT0=
EXTT1=
EXTT2=
EXTT3=
EXTT4=
EXTT5=
EXTT6=
EXTT7=
EXTT8=
EXTT9=
EXTT10=
PLAYORDER=
